<?xml version="1.0" encoding="utf-8"?>
<!-- Svg Vector Icons : http://www.onlinewebfonts.com/icon -->
<!DOCTYPE svg PUBLIC "-//W3C//DTD SVG 1.1//EN" "http://www.w3.org/Graphics/SVG/1.1/DTD/svg11.dtd">
<svg version="1.1" xmlns="http://www.w3.org/2000/svg" xmlns:xlink="http://www.w3.org/1999/xlink" x="0px" y="0px" viewBox="0 0 256 256" enable-background="new 0 0 256 256" xml:space="preserve">
<metadata> Svg Vector Icons : http://www.onlinewebfonts.com/icon </metadata>
<g><g><g><path fill="#000000" d="M117.5,12.7c-9.3,0.8-21.4,3.5-29.9,6.6c-7.2,2.7-17.9,8.1-24.6,12.6C45.1,43.8,31.3,59.5,22.1,78.4c-7.2,14.8-10.7,27.7-11.9,44.4c-1.1,15.5,1.4,33.2,6.8,47.9c2.5,7,8.5,18.7,12.5,24.6c11.7,17.4,26.7,30.8,45.2,40.2c6.3,3.1,17.8,7.8,19.4,7.8c0.4,0,1.8-2.1,3.2-4.6c5.9-10.5,13.1-17.3,21.8-20.7c2.7-1.1,3.8-1.2,8.6-1.2c4.8,0,5.9,0.1,8.6,1.2c4.9,1.8,8.1,4,12.4,8.2c4,3.9,7.8,9.2,10.5,14.6l1.4,2.8l2-0.6c12.2-3.7,25.8-10.6,35.7-18c5.6-4.2,6.6-5,12.5-11c9.8-9.6,16.6-19,22.7-31.4c7.5-15.2,10.9-27.9,12.1-45.1c2.3-32.4-9.7-65.1-32.8-89.1C188,22.7,153,9.6,117.5,12.7z M133.3,47.2c3.8,1.9,6.3,5.9,6.4,10.2c0,3.6-1.2,6.5-3.9,8.9c-3.3,3-7.3,3.8-11.6,2.5c-2.1-0.6-5.6-3.6-6.6-5.4c-3.4-6.5-0.3-14.3,6.5-16.9C126.5,45.7,130.9,45.9,133.3,47.2z M83,67.8c7.3,3.5,8.9,13.2,3.2,18.9c-5.8,5.7-15.3,4.1-18.9-3.3c-1.1-2.2-1.2-2.9-1-5.7c0.4-5,3-8.6,7.6-10.4C76.2,66.5,80.7,66.7,83,67.8z M182,67.4c4.7,1.7,7.3,5.3,7.7,10.4c0.2,2.8,0,3.5-1,5.7c-5.5,11.2-22.4,7.4-22.4-5C166.3,70.4,174.4,64.7,182,67.4z M62.8,118.2c3.5,1.8,5.7,5.2,6,9.4c0.3,3.3-0.7,6.2-3,8.8c-2.5,2.8-4.8,3.8-8.6,3.8c-3.9,0-6.2-1-8.9-4.1c-3.1-3.5-3.8-8.3-1.8-12.5C49.4,117.5,56.6,115.1,62.8,118.2z M203.5,117.6c7.2,3,9.4,13.2,4,18.8c-2.7,2.8-4.9,3.7-8.6,3.7c-3.8,0-6.1-1-8.6-3.8c-6.3-7-2.4-18,6.8-19.5C199.1,116.6,201.5,116.9,203.5,117.6z"/></g></g></g>
</svg>